HIERARCHY
ROOT Hips
{
	OFFSET -14.64140 90.27770 -84.91600
	CHANNELS 6 Xposition Yposition Zposition Zrotation Xrotation Yrotation
	JOINT Spine
	{
		OFFSET 0.00000 13.20850 -1.60436
		CHANNELS 3 Zrotation Xrotation Yrotation
		JOINT Spine1
		{
			OFFSET 0.00000 8.61716 0.00000
			CHANNELS 3 Zrotation Xrotation Yrotation
			JOINT Spine2
			{
				OFFSET 0.00000 8.61717 0.00000
				CHANNELS 3 Zrotation Xrotation Yrotation
				JOINT Spine3
				{
					OFFSET 0.00000 8.61717 0.00000
					CHANNELS 3 Zrotation Xrotation Yrotation
					JOINT Neck
					{
						OFFSET 0.00000 11.07920 1.10792
						CHANNELS 3 Zrotation Xrotation Yrotation
						JOINT Neck1
						{
							OFFSET 0.00000 7.08032 0.00000
							CHANNELS 3 Zrotation Xrotation Yrotation
							JOINT Head
							{
								OFFSET 0.00000 7.08031 0.00000
								CHANNELS 3 Zrotation Xrotation Yrotation
								End site
								{
									OFFSET 0.00000 0.00000 0.00000
								}
							}
						}
					}
					JOINT RightShoulder
					{
						OFFSET -0.01000 7.91373 5.19711
						CHANNELS 3 Zrotation Xrotation Yrotation
						JOINT RightArm
						{
							OFFSET -18.41580 0.00000 0.00000
							CHANNELS 3 Zrotation Xrotation Yrotation
							JOINT RightForeArm
							{
								OFFSET -29.11090 0.00000 0.00000
								CHANNELS 3 Zrotation Xrotation Yrotation
								JOINT RightHand
								{
									OFFSET -24.65040 0.00000 0.00000
									CHANNELS 3 Zrotation Xrotation Yrotation
									JOINT RightHandThumb1
									{
										OFFSET -5.35114 -0.85590 3.97906
										CHANNELS 3 Zrotation Xrotation Yrotation
										JOINT RightHandThumb2
										{
											OFFSET -4.52789 0.00000 0.00000
											CHANNELS 3 Zrotation Xrotation Yrotation
											JOINT RightHandThumb3
											{
												OFFSET -2.46976 0.00000 0.00000
												CHANNELS 3 Zrotation Xrotation Yrotation
												End site
												{
													OFFSET 0.00000 0.00000 0.00000
												}
											}
										}
									}
									JOINT RightHandIndex1
									{
										OFFSET -14.26970 0.00000 2.88139
										CHANNELS 3 Zrotation Xrotation Yrotation
										JOINT RightHandIndex2
										{
											OFFSET -5.48836 0.00000 0.00000
											CHANNELS 3 Zrotation Xrotation Yrotation
											JOINT RightHandIndex3
											{
												OFFSET -3.01859 0.00000 0.00000
												CHANNELS 3 Zrotation Xrotation Yrotation
												End site
												{
													OFFSET 0.00000 0.00000 0.00000
												}
											}
										}
									}
									JOINT RightHandMiddle1
									{
										OFFSET -14.26970 0.00000 -0.09147
										CHANNELS 3 Zrotation Xrotation Yrotation
										JOINT RightHandMiddle2
										{
											OFFSET -6.17441 0.00000 0.00000
											CHANNELS 3 Zrotation Xrotation Yrotation
											JOINT RightHandMiddle3
											{
												OFFSET -3.56743 0.00000 0.00000
												CHANNELS 3 Zrotation Xrotation Yrotation
												End site
												{
													OFFSET 0.00000 0.00000 0.00000
												}
											}
										}
									}
									JOINT RightHandRing1
									{
										OFFSET -12.69180 0.00000 -3.06433
										CHANNELS 3 Zrotation Xrotation Yrotation
										JOINT RightHandRing2
										{
											OFFSET -5.62556 0.00000 0.00000
											CHANNELS 3 Zrotation Xrotation Yrotation
											JOINT RightHandRing3
											{
												OFFSET -3.56744 0.00000 0.00000
												CHANNELS 3 Zrotation Xrotation Yrotation
												End site
												{
													OFFSET 0.00000 0.00000 0.00000
												}
											}
										}
									}
									JOINT RightHandPinky1
									{
										OFFSET -11.11390 0.00000 -6.03719
										CHANNELS 3 Zrotation Xrotation Yrotation
										JOINT RightHandPinky2
										{
											OFFSET -4.52789 0.00000 0.00000
											CHANNELS 3 Zrotation Xrotation Yrotation
											JOINT RightHandPinky3
											{
												OFFSET -2.46976 0.00000 0.00000
												CHANNELS 3 Zrotation Xrotation Yrotation
												End site
												{
													OFFSET 0.00000 0.00000 0.00000
												}
											}
										}
									}
								}
							}
						}
					}
					JOINT LeftShoulder
					{
						OFFSET 0.01000 7.91373 5.19711
						CHANNELS 3 Zrotation Xrotation Yrotation
						JOINT LeftArm
						{
							OFFSET 18.41580 0.00000 0.00000
							CHANNELS 3 Zrotation Xrotation Yrotation
							JOINT LeftForeArm
							{
								OFFSET 29.11090 0.00000 0.00000
								CHANNELS 3 Zrotation Xrotation Yrotation
								JOINT LeftHand
								{
									OFFSET 24.65040 0.00000 0.00000
									CHANNELS 3 Zrotation Xrotation Yrotation
									JOINT LeftHandThumb1
									{
										OFFSET 5.35114 -0.85590 3.97906
										CHANNELS 3 Zrotation Xrotation Yrotation
										JOINT LeftHandThumb2
										{
											OFFSET 4.52789 0.00000 0.00000
											CHANNELS 3 Zrotation Xrotation Yrotation
											JOINT LeftHandThumb3
											{
												OFFSET 2.46977 0.00000 0.00000
												CHANNELS 3 Zrotation Xrotation Yrotation
												End site
												{
													OFFSET 0.00000 0.00000 0.00000
												}
											}
										}
									}
									JOINT LeftHandIndex1
									{
										OFFSET 14.26970 0.00000 2.88139
										CHANNELS 3 Zrotation Xrotation Yrotation
										JOINT LeftHandIndex2
										{
											OFFSET 5.48836 0.00000 0.00000
											CHANNELS 3 Zrotation Xrotation Yrotation
											JOINT LeftHandIndex3
											{
												OFFSET 3.01859 0.00000 0.00000
												CHANNELS 3 Zrotation Xrotation Yrotation
												End site
												{
													OFFSET 0.00000 0.00000 0.00000
												}
											}
										}
									}
									JOINT LeftHandMiddle1
									{
										OFFSET 14.26970 0.00000 -0.09147
										CHANNELS 3 Zrotation Xrotation Yrotation
										JOINT LeftHandMiddle2
										{
											OFFSET 6.17440 0.00000 0.00000
											CHANNELS 3 Zrotation Xrotation Yrotation
											JOINT LeftHandMiddle3
											{
												OFFSET 3.56744 0.00000 0.00000
												CHANNELS 3 Zrotation Xrotation Yrotation
												End site
												{
													OFFSET 0.00000 0.00000 0.00000
												}
											}
										}
									}
									JOINT LeftHandRing1
									{
										OFFSET 12.69180 0.00000 -3.06433
										CHANNELS 3 Zrotation Xrotation Yrotation
										JOINT LeftHandRing2
										{
											OFFSET 5.62556 0.00000 0.00000
											CHANNELS 3 Zrotation Xrotation Yrotation
											JOINT LeftHandRing3
											{
												OFFSET 3.56744 0.00000 0.00000
												CHANNELS 3 Zrotation Xrotation Yrotation
												End site
												{
													OFFSET 0.00000 0.00000 0.00000
												}
											}
										}
									}
									JOINT LeftHandPinky1
									{
										OFFSET 11.11390 0.00000 -6.03719
										CHANNELS 3 Zrotation Xrotation Yrotation
										JOINT LeftHandPinky2
										{
											OFFSET 4.52789 0.00000 0.00000
											CHANNELS 3 Zrotation Xrotation Yrotation
											JOINT LeftHandPinky3
											{
												OFFSET 2.46976 0.00000 0.00000
												CHANNELS 3 Zrotation Xrotation Yrotation
												End site
												{
													OFFSET 0.00000 0.00000 0.00000
												}
											}
										}
									}
								}
							}
						}
					}
					JOINT pCube4
					{
						OFFSET 0.00000 10.91090 1.10792
						CHANNELS 3 Zrotation Xrotation Yrotation
						End site
						{
							OFFSET 0.00000 0.00000 0.00000
						}
					}
				}
			}
		}
	}
	JOINT RightUpLeg
	{
		OFFSET -9.98441 0.00000 0.00000
		CHANNELS 3 Zrotation Xrotation Yrotation
		JOINT RightLeg
		{
			OFFSET 0.00000 -42.11790 0.00000
			CHANNELS 3 Zrotation Xrotation Yrotation
			JOINT RightFoot
			{
				OFFSET 0.00000 -45.00020 -0.00001
				CHANNELS 3 Zrotation Xrotation Yrotation
				JOINT RightForeFoot
				{
					OFFSET 0.00000 -3.74820 0.00000
					CHANNELS 3 Zrotation Xrotation Yrotation
					JOINT RightToeBase
					{
						OFFSET 0.00000 0.06325 14.43120
						CHANNELS 3 Zrotation Xrotation Yrotation
						End site
						{
							OFFSET 0.00000 0.00000 0.00000
						}
					}
				}
			}
		}
	}
	JOINT LeftUpLeg
	{
		OFFSET 9.98441 0.00000 0.00000
		CHANNELS 3 Zrotation Xrotation Yrotation
		JOINT LeftLeg
		{
			OFFSET 0.00000 -42.11800 0.00000
			CHANNELS 3 Zrotation Xrotation Yrotation
			JOINT LeftFoot
			{
				OFFSET 0.00000 -45.00070 0.00000
				CHANNELS 3 Zrotation Xrotation Yrotation
				JOINT LeftForeFoot
				{
					OFFSET 0.00000 -3.74824 0.00000
					CHANNELS 3 Zrotation Xrotation Yrotation
					JOINT LeftToeBase
					{
						OFFSET 0.00000 0.06325 14.43110
						CHANNELS 3 Zrotation Xrotation Yrotation
						End site
						{
							OFFSET 0.00000 0.00000 0.00000
						}
					}
				}
			}
		}
	}
}
MOTION
Frames: 4
Frame Time: 0.050000
0.002336923818334846 0.04766645004222375 0.016189353583985332 -0.03507115273208905 0.030222733284396293 -0.015694526338974096 -1.855154495905886 1.4007702345535997 -0.8662357523859638 -1.0292182196444033 3.852521932495374 0.3957806326257311 -1.1474785126667066 -1.823612552288931 -0.644364129262655 0.03629504542619269 0.3603378835457302 -0.7405084525501142 -0.1871332626232878 14.053083119243537 0.02553400842939085 -0.08281617792344037 0.27678676561821025 -2.0497764390020645 -0.026325359279044856 -14.814989083335464 -0.10631495226054555 -6.212392007964094 2.1615234721365493 -13.646539738467913 66.74045697570271 14.821246298153392 18.750016641231564 0.6271321048614397 -2.976338865840538 93.64841076882676 8.880350180823882 -0.08587892704928468 -0.5273414114572114 4.533226423703089 -0.14382738242011142 -1.611619262390459 -0.026218930638611034 0.02946056246051487 -56.28091391934455 -0.011272979649624322 0.00534762431543275 -56.252701635363714 -38.74056227111509 -0.002108329757647299 -0.026392009568493323 0.026852086486442665 0.023385860032928127 -0.00239107675775981 0.017509956171281257 0.0009827121470716677 0.01956922449598443 -36.73449916739439 -0.024194686243622737 0.04284225037825335 0.03347197755508837 -0.02814542690691063 0.03792109221766892 0.0433833216674932 0.03121392094903983 0.03668537648833653 -19.756633542186393 -0.0304833230015386 -0.028735520046480043 0.033775523467784736 0.04710277984213287 0.03249769779295331 0.013411941488173785 -0.032401098050318676 0.03689502802490147 24.068084729293254 0.02891239641685862 -0.02756111935765012 28.838137983879356 -0.019025108364182104 0.0312645114809702 28.87694692275446 0.0007667739939833032 0.047842436224009945 7.907159524683268 1.7613901292252772 12.761261186011327 -66.02923755437827 22.999515558673423 -19.752958161526493 8.117578582468058 -11.925762170494707 -91.05419677670707 -1.5610392702864988 0.9243870508898246 -1.3532587058737966 -0.5240963269860508 0.09728474845045249 -8.090390491606778 0.01513406685029445 -0.023528303739008088 44.580782932533275 0.009561637981699525 0.029380884103895888 44.582709362503245 12.431277945842266 0.02751636233950202 0.04882541234760233 -0.02823389700460046 0.00455168860096926 -0.012639931616270483 0.014025281173500865 -0.017760138026595176 0.03572656921186969 11.08067839564659 0.034075546394940995 -0.0012286571154209141 0.0006049504472049209 -0.0016134505868262946 -0.012745332667279743 -0.0006586084121859629 -0.03146745189428159 -0.038320166578060054 4.7618810403196505 -0.01374619431866221 0.03086121751709608 -0.04615246440000382 0.0069045037785977195 0.005194237677020986 -0.02604076455347958 0.04634708101835907 0.024590609973785312 -5.614297077809975 0.03587030506488578 0.015708960841829937 -6.676498587172739 0.009571390569750817 0.03432368357608989 -6.711749484466404 0.03664859374314418 -0.010207483327401238 0.0303876684968251 -0.023349643412194605 0.021482135170230142 8.056344235509124 3.5058943633294515 -19.224599677531554 -0.03583889753834338 10.35365890051418 0.03927666062111247 -5.650830830806934 -15.630745129871197 3.176031591306684 -0.03902524585129111 -0.008748736711435967 0.005710788310456881 -0.039356748809269655 4.6605313055799 -0.028227900420393484 12.445547462447282 -8.218367954008674 6.861450890053286 -0.0030796406473833906 46.346196536656315 -0.03423107311057492 -4.318675001917892 -14.795690510510278 -3.87502867828828 0.033558197567519314 -0.028599501224049143 0.04375803751827242 0.016929618736297017 -10.782161025487829 0.00643524175671738 
-0.021374460012861123 0.030678493885548243 -0.02955049096353848 -0.02846367283473977 -0.027113980610191754 0.01756998796995555 -1.943356335552548 1.3741502206142673 -0.8442798354625557 -0.9860742829554539 3.8441425631385493 0.33288964926863995 -1.102372479354821 -1.8714378924725914 -0.6708428919822467 -0.08852152774009009 0.3077868859456869 -0.7367968520122946 -0.28397778395347645 14.254865536431042 0.11064856354309363 -0.08209198719388255 0.408129303423549 -1.7639947637997162 -0.12687876091427253 -14.664817041973716 -0.11236749440207998 -6.4760584038251805 2.251987901012394 -13.570768163189692 66.07360492363264 12.419204306411991 19.904953547510917 1.7295378480920571 -2.5014219743722514 93.06153437815775 9.047740777318403 -0.1367269350639689 -0.42004751747674457 4.5488080175110275 -0.09052741665133854 -1.5781153429657018 -0.04084512534458549 0.04160054447734064 -56.1966640201478 -0.04019550968219658 0.037233411674756474 -56.27313893278638 -38.789324228321995 0.01330195563839258 -0.009709687364806806 -0.007895187287878955 0.011521288370977477 -0.027909599706600514 -0.011988010692598288 -0.04934288219998507 0.045675466899167426 -36.72167740423496 0.01067100125644145 -0.04326220333738054 -0.015871818005254158 -0.038656536772387375 0.0011698401508584632 -0.006785864991899239 -0.004064957503752641 -0.03264919499680972 -19.783795199340762 0.022905201544684818 0.02820638395029793 0.008671443222001498 0.003066108947475501 0.03167343008061314 0.010967900056125534 0.03316911544834647 -0.015011332038660157 24.03803060585381 -0.007903294974531447 -0.0370644267455479 28.879758741678113 0.04279834710466588 -0.014609540816961813 28.872263893173173 0.03415645034386041 -0.018040840882804204 8.31465784593213 1.835231544337164 12.628378289671875 -65.24611369859771 21.107399558325582 -22.12292771612018 5.6768947101662945 -10.31902721503288 -90.34790479464296 -1.947428159579157 1.2189196523126162 -1.4727953351941574 -0.43932606498054977 0.11201182919209338 -8.132304365275093 0.02633983418167332 0.023646744383907455 44.55152196035307 0.0007400695509600356 0.021595698979244283 44.58733693989732 12.491897248648106 -0.0024694812029140622 -0.03175188566055838 -0.005394330800301787 -0.032106110452930686 -0.024476509109180738 0.004657837981144511 -0.015835508005450333 0.025200391084624255 11.082190926996262 0.036132745700727255 0.03358270219586087 -0.028633315830382113 -0.03816681178976534 0.010611254626918032 0.03734590159384183 -0.0024167531490964546 0.04085895320756718 4.737938799148314 0.011289079324416055 -0.02094794411355017 -0.0434699942839316 -0.04817392454696249 0.018644826385289453 -0.027912131185304924 0.047091089812511554 -0.03751329036207367 -5.601970984263507 -0.04407337729116342 0.015994543029523346 -6.711997521663376 0.0059397518249847256 -0.009689873291560213 -6.710063747340191 0.0031759232740966098 -0.005542005017101967 -0.010492584693549939 0.043996267320839985 0.026974530986975637 8.047412829903662 3.487197644969498 -19.179084371989635 0.033367740373650125 10.422088579643978 0.03318103142973165 -5.575997444715001 -15.703351197227517 3.2242688386367475 -0.031199283992892936 -0.03760214225245851 -0.04331144392311403 -0.003500825689645606 4.735754726163344 0.001212920055968522 12.478111441130341 -8.276666537142534 6.873574787317421 -0.015562209789149769 46.36279398328145 -0.034225557356122364 -4.350144019262753 -14.718622655908773 -3.791554520372945 -0.0072812604324532975 0.007790136412943483 0.044241726759034275 -0.012916958377166823 -10.704862242560557 0.02843419138451806 
0.042433531851504835 0.022024258353977883 -0.03808269094828223 -0.04077527469369096 -0.008447988995026369 -0.019786670150662027 -2.0116253762612653 1.4012804651658668 -0.8418308885656521 -1.0332703696289465 3.851929284642845 0.3817918320644074 -1.132154887333906 -1.956708457030752 -0.8381478923963297 -0.08047843017856982 0.3188533081857611 -0.8160044203244897 -0.33831105232246983 14.474668994409372 0.1539224515526167 -0.10012055053128495 0.4619214102026858 -1.5244518930146347 -0.1849449348603487 -14.488969956653776 -0.11184428436342564 -6.814529752551138 2.31886324611993 -13.524131346974047 65.18410614169906 10.030835662804467 21.257157081754013 2.1655904863871123 -2.2099647607986794 92.6748365186907 9.193253013819325 -0.14577092548192316 -0.40952715969033776 4.51486949625959 -0.13737425795540273 -1.5625566479276456 -0.024917188433002647 0.0022233698018609255 -56.246737099688964 -0.02360286590126003 -0.005981811798683665 -56.19990105444076 -38.773154568103685 -0.02975539740651099 0.008681589951551888 -0.008332855021595411 0.010936387301497891 -0.04313400003153784 -0.04800664321214736 -0.0017034019334227033 -0.010420153469738127 -36.68254647499429 -0.0038262718152664646 -0.045649584761927584 0.006982606532407683 0.027395293927411177 0.04742813370580031 -0.035870116376162185 -0.02482537971319711 -0.037191160302995865 -19.789962286623368 0.039821275383607205 0.011892871206501497 -0.02837126548097739 -0.016982983508824552 -0.02581945427480995 -0.04445797268960257 0.013528701288665247 0.03272929787545648 24.017761791665908 0.026094980582050602 0.04101046373880039 28.8744457468017 -0.037328939682242795 -0.039095765168334115 28.87774277217025 -0.023201388981910438 -0.024432280153181624 8.898230797959876 1.9209317714898404 12.542731627745951 -64.3631132335778 19.52952585325273 -24.71351706472163 3.7549001332459913 -8.848921487449037 -89.95504557870511 -2.421770454757792 1.3770590110864998 -1.4444077331995908 -0.4790225126816816 0.024091817542900365 -8.123582202384869 -0.024426463117212676 -0.014926199534746694 44.6090448780329 0.049801232967076135 0.0334948610386279 44.58018464010896 12.486769201833129 -0.02997798476369838 -0.029149379604849975 -0.027486480333853282 0.043842823501575506 -0.006934307975314279 -0.046077537826583345 0.019970919104744016 0.022670555954253387 11.13872818129205 -0.030768038430759852 0.018932251733001428 -0.018041836060496252 0.019259105331823262 -0.006923758115713207 0.02855863370178917 0.007541214708290865 -0.01693170066256602 4.755007207158962 -0.005452872478840348 -0.004795891629087345 -0.010949590846346498 0.024693746795493184 -0.00013230761671390343 0.04035628686271021 0.007054082709683965 0.02939666487687335 -5.61716100049831 0.03033906481288179 -0.012234190448984328 -6.705924222914793 9.123849479120941e-05 -0.031375121048967454 -6.723020342676289 0.015756192258364714 0.02873482590724386 -0.023377473007383857 0.01785371957589336 -0.021057377339827186 8.06399722341443 3.4949925506178743 -19.219449794569776 -0.018098820616572565 10.415156995517846 0.05333394230627661 -5.581036529400391 -15.653870934403052 3.1884302054498432 0.004510585619891675 -0.004313879937691078 -0.047449905622251376 0.03453788575173338 4.72105041710567 -0.010944321551041096 12.416920201329585 -8.233738069500271 6.910691483137414 0.0132000921932173 46.337239152655094 0.020036284467783466 -4.284526817547734 -14.743125798278042 -3.861850911631619 -0.025442105093402983 -0.0071281535237998715 0.020709911480653622 0.002920843735239489 -10.74331715447763 -0.041902300963727504 
0.03140655556893908 -0.04920724745355956 0.038614702672056925 0.025127619854817203 -0.04489619965355617 -0.033572028627187826 -2.103547214218315 1.5450624482257869 -0.7853103378081168 -1.004606511561217 3.784518075576288 0.3661886050800408 -1.1884860498053829 -1.9646493320908736 -0.9336925953576162 -0.17245605020827018 0.3010825659728617 -0.8034255511399363 -0.4366164717496663 14.729151999700944 0.15842378670700455 -0.14801061161486956 0.6171929400441887 -1.2668212016946594 -0.2392808385129206 -14.408860601316482 -0.09847119346981381 -7.201818731484666 2.411498347136484 -13.41109640101033 64.37281371518999 7.647994914941002 22.81901527900122 1.6496869793765248 -2.182568981594816 92.93062496454114 8.863401805798656 -0.15039589122267233 -0.22735902461485868 4.575518411281146 -0.10711449378029687 -1.6106312012582946 -0.020941470597371142 0.013832440574548228 -56.23708256693921 -0.016766447908582026 -0.02257601861470242 -56.247500811117554 -38.7694969637866 0.012411766624937317 0.032813148033988195 -0.013072245195887153 -0.00024544741172533285 -0.03430035919012371 -0.017804207857248254 0.03340792988028363 -0.011355300127012476 -36.72776130712889 0.01301762221164842 0.01253723753330372 -0.014573707022179217 0.02851567365136816 -0.03533116392868704 0.003125004612205571 0.012442175573213206 -0.044247472686263736 -19.714644303281638 0.005789479971153057 0.0029628990104362024 0.0007187304640505194 -0.02824112018278904 -0.008735331875564667 0.004507164511839875 -0.016761105772403084 -0.02632106420337066 24.098276291992377 -0.0027141044348384536 -0.028031786831591354 28.834040199414808 0.001669975827037867 -0.021998638907434948 28.8979310782 0.004506283159527239 -0.03602820635225314 9.452208876570463 2.069884097054888 12.524243616227531 -63.20890940591088 18.018805673543362 -27.67024164667123 2.4293132942320623 -7.549996668382133 -90.39075408216131 -2.513965232370342 1.5711099595793914 -1.578690516940729 -0.5183901841287104 0.06767131130762548 -8.083594434659645 -0.025649061918472563 0.033022307241434276 44.53223598240612 0.010014839171465636 -0.015542318698313436 44.53968927821289 12.456167235082873 -0.026377164235863115 0.008549883523713758 -0.012303794998455256 0.02420456752290948 -0.038991852663574716 -0.030636151020472954 -0.002034412035122282 -0.0316841222135411 11.113739964782809 -0.03825220868677144 0.002943382814962517 -0.014336030963958425 -0.006188531181972026 0.009696376527359675 0.04947039757979293 -0.02461764634372934 -0.020934210211961346 4.780560922799976 -0.012473512729478633 0.02029044827335207 -0.04633602734849476 -0.01266811106653053 0.04086909361289286 -0.03203760496820875 0.03520287350865247 -0.034112236598305055 -5.60124778310585 0.04881836372335096 -0.0010944155770282336 -6.713673091170395 0.022107464996704698 -0.007106451091362161 -6.710096431249072 -0.03486566152888835 -0.008348214663591837 0.02416549552774399 -0.008607534697526622 0.03745773178371787 8.011717861884948 3.537476477347368 -19.23527249495904 0.041119725356759305 10.380352514208854 0.022862793163022685 -5.634044697373039 -15.613399273187813 3.2187030303582285 -0.001415247275252555 -0.049068380893562906 -0.045417859691566066 -0.019747869961416347 4.72160023069531 -0.003905079557602073 12.421555855653189 -8.25585289252905 6.8813972352216215 0.026304777435302223 46.35644267355063 0.03281971896305128 -4.323293120762734 -14.706464460955505 -3.8552394460546835 0.007031108405548782 0.029609092204837085 0.02968440998813901 -0.010853584547487034 -10.759815865373781 -0.007789128649500125 
